<svg width="144" height="69" viewBox="0 0 144 69" fill="none" xmlns="http://www.w3.org/2000/svg">
<rect y="0.5" width="19.1556" height="68.1088" fill="black"/>
<rect x="85.1357" y="0.5" width="19.8651" height="18.8009" fill="black"/>
<path d="M144 34.9738C144 13.1765 136.1 0.5 110.3 0.5H104.858V18.0314H110.3C121.767 18.0314 123.181 24.1524 123.181 34.9738H144Z" fill="black"/>
<path d="M144 68.0112C144 46.2139 136.1 33.5374 110.3 33.5374H104.858V51.0688H110.3C121.767 51.0688 123.181 57.1899 123.181 68.0112H144Z" fill="black"/>
<path d="M59.9497 68.6088C86.2982 68.6088 105.001 58.7789 105.001 24.7237V19.3009L85.1358 19.3009V24.7237C85.1358 42.9443 77.829 47.6855 59.9497 47.6855V68.6088Z" fill="black"/>
<path d="M19.1558 68.6087C45.5042 68.6087 64.2069 58.7788 64.2069 24.7236V0L44.3418 0V24.7236C44.3418 42.9442 37.0351 47.6854 19.1558 47.6854V68.6087Z" fill="black"/>
</svg>
