<svg width="180" height="180" viewBox="0 0 180 180" fill="none" xmlns="http://www.w3.org/2000/svg">
<rect width="180" height="180" rx="20" fill="black"/>
<rect x="20" y="56" width="19.1556" height="68.1088" fill="white"/>
<rect x="105.136" y="56" width="19.8651" height="18.8009" fill="white"/>
<path d="M164 90.4738C164 68.6765 156.1 56 130.3 56H124.858V73.5314H130.3C141.767 73.5314 143.181 79.6524 143.181 90.4738H164Z" fill="white"/>
<path d="M164 123.511C164 101.714 156.1 89.0374 130.3 89.0374H124.858V106.569H130.3C141.767 106.569 143.181 112.69 143.181 123.511H164Z" fill="white"/>
<path d="M79.95 124.109C106.298 124.109 125.001 114.279 125.001 80.2237V74.8009H105.136V80.2237C105.136 98.4443 97.8293 103.186 79.95 103.186V124.109Z" fill="white"/>
<path d="M39.1558 124.109C65.5042 124.109 84.2069 114.279 84.2069 80.2237V74.8009H64.3418V80.2237C64.3418 98.4443 57.0351 103.186 39.1558 103.186V124.109Z" fill="white"/>
</svg>
