<svg width="9068" height="2156" viewBox="0 0 9068 2156" fill="none" xmlns="http://www.w3.org/2000/svg">
<path d="M2886 1080H3091.5V1016H3078V999.5H3091.5V883L3084 876V866H3075.5V852.5H3084V842.5L3091.5 836.5V812.5H3084V800.5H3091.5V624H3086V616.5L3079 610.5V602.5H3091.5V569L3073 560V553H3055.5V539.5H3073V508.5H3148V529H3396V508.5H3493V529H3954.5L4336 415V399H4360L4364 387.5L4378.5 377H4387V44L4369.61 49.6407C4368.88 49.8771 4368.21 50.2778 4367.67 50.8118L4351.59 66.4443C4350.88 67.1327 4349.98 67.596 4349.01 67.7758L4325.07 72.209C4324.05 72.3983 4323.11 72.9014 4322.39 73.6483L4306.39 90.1796C4302.84 93.8493 4296.72 90.4617 4297.94 85.5039L4303.13 64.4937C4303.37 63.5204 4303.9 62.6418 4304.64 61.972L4327.28 41.6475C4327.76 41.2198 4328.31 40.8876 4328.91 40.6688L4343.11 35.504C4344.02 35.175 4344.81 34.5918 4345.39 33.8244L4356.18 19.5766C4356.72 18.8715 4357.43 18.3207 4358.25 17.9805L4387 6V44V377L4395.5 377.5L4410 388L4414 399.5H4438V415.5L4819.5 529.5H5281V509H5378V529.5H5626V509H5701V540H5718.5V553.5H5701V560.5L5682.5 569.5V603H5695V611L5688 617V624.5H5682.5V801H5690V813H5682.5V837L5690 843V853H5698.5V866.5H5690V876.5L5682.5 883.5V1000H5696V1016.5H5682.5V1080.5L9063.5 1080V2151.5H4V1080.5L2821 1080V955.5H2808.5V939H2821L2853.5 889.5L2884 939H2898V955.5H2886V1080Z" fill="currentColor"/>
<path d="M4387 377H4378.5L4364 387.5L4360 399H4336V415L3954.5 529H3493V508.5H3396V529H3148V508.5H3073V539.5H3055.5V553H3073V560L3091.5 569V602.5H3079V610.5L3086 616.5V624H3091.5V800.5H3084V812.5H3091.5V836.5L3084 842.5V852.5H3075.5V866H3084V876L3091.5 883V999.5H3078V1016H3091.5V1080H2886V955.5H2898V939H2884L2853.5 889.5L2821 939H2808.5V955.5H2821V1080L4 1080.5V2151.5H9063.5V1080L5682.5 1080.5V1016.5H5696V1000H5682.5V883.5L5690 876.5V866.5H5698.5V853H5690V843L5682.5 837V813H5690V801H5682.5V624.5H5688V617L5695 611V603H5682.5V569.5L5701 560.5V553.5H5718.5V540H5701V509H5626V529.5H5378V509H5281V529.5H4819.5L4438 415.5V399.5H4414L4410 388L4395.5 377.5L4387 377ZM4387 377V44M4387 44L4369.61 49.6407C4368.88 49.8771 4368.21 50.2778 4367.66 50.8118L4351.59 66.4443C4350.88 67.1327 4349.98 67.596 4349.01 67.7758L4325.07 72.209C4324.05 72.3983 4323.11 72.9014 4322.39 73.6483L4306.39 90.1796C4302.84 93.8493 4296.72 90.4617 4297.94 85.5039L4303.13 64.4937C4303.37 63.5204 4303.9 62.6418 4304.64 61.972L4327.28 41.6475C4327.76 41.2198 4328.31 40.8876 4328.91 40.6688L4343.11 35.504C4344.02 35.175 4344.81 34.5918 4345.39 33.8244L4356.18 19.5766C4356.72 18.8715 4357.43 18.3207 4358.25 17.9805L4387 6V44Z" stroke="currentColor" stroke-width="8"/>
</svg>
