<svg width="48964" height="5634" viewBox="0 0 48964 5634" fill="none" xmlns="http://www.w3.org/2000/svg">
<path d="M28849.5 3004.61V2350.15L29910.9 2077.61L30244.4 2260.88H30476.2L30715.8 2505.64V2172.2L31229.5 2223.09L31903.5 2561.21V2505.64L32073.9 2561.21H32529.4V3004.61L48959.5 3005.22V5629.72H4V3004.22H18779.5V2561.72L18754 2548.72V2542.72H18779.5V2468.22L18740.5 2450.22V2435.72L19002.5 2354.72V2323.22H19069.5V2354.72H19247V2302.22H19384V2302.72H19521V2355.22H19698.5V2323.72H19765.5V2355.22L20027.5 2436.22V2450.72L19988.5 2468.72V2543.22H20014V2549.22L19988.5 2562.22V3004.72L20910.8 3003.61V2850.78H20896.7V2830.53H20910.8L20947.4 2769.76L20981.8 2830.53H20997.6V2850.78H20984V3003.61H21215.7V2925.05H21200.4V2904.79H21215.7V2761.78L21207.2 2753.19V2740.91H21197.6V2724.34H21207.2V2712.07L21215.7 2704.7V2675.24H21207.2V2660.51H21215.7V2443.85H21209.5V2434.64L21201.6 2427.28V2417.46H21215.7V2376.33L21194.8 2365.29V2356.69H21175.1V2340.12H21194.8V2302.07H21279.3V2327.23H21558.8V2302.07H21668.2V2327.23H22188.3L22618.3 2187.29V2167.65H22645.4L22649.9 2153.53L22666.2 2140.64H22675.8V1731.87L22655.2 1739.71C22654.5 1739.98 22653.8 1740.4 22653.3 1740.95L22635.7 1759.56C22635 1760.31 22634.1 1760.83 22633.1 1761.03L22605.9 1766.53C22604.8 1766.74 22603.8 1767.29 22603.1 1768.11L22583.3 1790.38C22579.9 1794.24 22573.6 1790.99 22574.7 1785.95L22581.4 1756.63C22581.6 1755.69 22582 1754.84 22582.7 1754.16L22608.6 1728.89C22609 1728.43 22609.6 1728.06 22610.2 1727.82L22626.5 1721.38C22627.4 1721.02 22628.2 1720.39 22628.8 1719.58L22641.2 1701.7C22641.7 1700.96 22642.4 1700.37 22643.2 1700L22675.8 1685.22V1731.87V2140.64H22685.7L22701.7 2154.15L22706.2 2168.26H22733.3V2187.9L23163.3 2327.84H23683.4V2302.68H23792.7V2327.84H24072.2V2302.68H24156.8V2340.73H24176.5V2357.31H24156.8V2365.9L24135.9 2376.95V2418.07H24150V2427.89L24142.1 2435.26V2444.46H24135.9V2661.12H24144.4V2675.85H24135.9V2705.32L24144.4 2712.68V2724.96H24154V2741.53H24144.4V2753.8L24135.9 2762.4V2905.41H24151.1V2925.66H24135.9V3004.22L24734.5 3004.72V2872.22L24841.1 2772.22L24848.5 2763.77C24872.3 2736.68 24890.3 2705.1 24901.7 2670.9C24910.5 2644.28 24915.1 2616.44 24915.4 2588.4L24922.1 1793.22H24823.5V1753.33H24922.1V1499.38H24823.5V1450.28H24922.1V1424.22H24909.3C24903.6 1424.22 24898.1 1422.47 24893.4 1419.17C24885.1 1413.38 24880.1 1403.46 24880.1 1392.82V1391.75C24880.1 1381.24 24884.8 1371.37 24892.8 1365.27C24897.9 1361.34 24904 1359.22 24910.3 1359.22H24922.1V1240.06H24823.5V1199.39H24922.1V1036.72H24823.5V996.079H24922.1V942.373H24754.7L24628 654.224H24719.2L24781.3 583.164H24854.9V544.803H24938.6L24969 0.223633L24999.4 544.803H25083.1V583.164H25156.7L25218.8 654.224H25309.5L25183.3 942.373H25015.9V996.079H25114.5V1036.72H25015.9V1199.39H25114.5V1240.06H25015.9V1450.28H25114.5V1499.38H25015.9V1562.22H25024.3C25029.3 1562.22 25034.2 1563.82 25038.1 1566.78L25039.1 1567.49C25044.4 1571.41 25047.5 1577.61 25047.5 1584.19C25047.5 1591.09 25044.1 1597.54 25038.4 1601.41L25037.7 1601.88C25034 1604.38 25029.6 1605.72 25025.1 1605.72H25015.9V1753.33H25114.5V1793.22H25015.9L25009.4 2578.78C25009.1 2613.12 25015.2 2647.21 25027.2 2679.36C25038 2708.07 25053.4 2734.82 25072.9 2758.54L25084.1 2772.22L25193 2872.22V3004.72L25775.1 3005.22V2855.44H25800.1V2295.91H26643.3V1892.09L26705.3 1686.22L26767.3 1892.09V2295.91L26989 1892.09H26989.6L27211.3 2295.91V1892.09L27273.3 1686.22L27335.2 1892.09V2295.91H28214.9V2855.44H28239.8V3005.22L28849.5 3004.61Z" fill="currentColor"/>
<path d="M22675.8 2140.64H22666.2L22649.9 2153.53L22645.4 2167.65H22618.3V2187.29L22188.3 2327.23H21668.2V2302.07H21558.8V2327.23H21279.3V2302.07H21194.8V2340.12H21175.1V2356.69H21194.8V2365.29L21215.7 2376.33V2417.46H21201.6V2427.28L21209.5 2434.64V2443.85H21215.7V2660.51H21207.2V2675.24H21215.7V2704.7L21207.2 2712.07V2724.34H21197.6V2740.91H21207.2V2753.19L21215.7 2761.78V2904.79H21200.4V2925.05H21215.7V3003.61H20984V2850.78H20997.6V2830.53H20981.8L20947.4 2769.76L20910.8 2830.53H20896.7V2850.78H20910.8V3003.61L19988.5 3004.72V2562.22L20014 2549.22V2543.22H19988.5V2468.72L20027.5 2450.72V2436.22L19765.5 2355.22V2323.72H19698.5V2355.22H19521V2302.72H19384V2302.22H19247V2354.72H19069.5V2323.22H19002.5V2354.72L18740.5 2435.72V2450.22L18779.5 2468.22V2542.72H18754V2548.72L18779.5 2561.72V3004.22H4V5629.72H48959.5V3005.22L32529.4 3004.61V2561.21H32073.9L31903.5 2505.64V2561.21L31229.5 2223.09L30715.8 2172.2V2505.64L30476.2 2260.88H30244.4L29910.9 2077.61L28849.5 2350.15V3004.61L28239.8 3005.22V2855.44H28214.9V2295.91H27335.2V1892.09L27273.3 1686.22L27211.3 1892.09V2295.91L26989.6 1892.09H26989L26767.3 2295.91V1892.09L26705.3 1686.22L26643.3 1892.09V2295.91H25800.1V2855.44H25775.1V3005.22L25193 3004.72V2872.22L25084.1 2772.22L25072.9 2758.54C25053.4 2734.82 25038 2708.07 25027.2 2679.36C25015.2 2647.21 25009.1 2613.12 25009.4 2578.78L25015.9 1793.22H25114.5V1753.33H25015.9V1605.72H25025.1C25029.6 1605.72 25034 1604.38 25037.7 1601.88L25038.4 1601.41C25044.1 1597.54 25047.5 1591.09 25047.5 1584.19C25047.5 1577.61 25044.4 1571.41 25039.1 1567.49L25038.1 1566.78C25034.2 1563.82 25029.3 1562.22 25024.3 1562.22H25015.9V1499.38H25114.5V1450.28H25015.9V1240.06H25114.5V1199.39H25015.9V1036.72H25114.5V996.079H25015.9V942.373H25183.3L25309.5 654.224H25218.8L25156.7 583.164H25083.1V544.803H24999.4L24969 0.223633L24938.6 544.803H24854.9V583.164H24781.3L24719.2 654.224H24628L24754.7 942.373H24922.1V996.079H24823.5V1036.72H24922.1V1199.39H24823.5V1240.06H24922.1V1359.22H24910.3C24904 1359.22 24897.9 1361.34 24892.8 1365.27C24884.8 1371.37 24880.1 1381.24 24880.1 1391.75V1392.82C24880.1 1403.46 24885.1 1413.38 24893.4 1419.17C24898.1 1422.47 24903.6 1424.22 24909.3 1424.22H24922.1V1450.28H24823.5V1499.38H24922.1V1753.33H24823.5V1793.22H24922.1L24915.4 2588.4C24915.1 2616.44 24910.5 2644.28 24901.7 2670.9C24890.3 2705.1 24872.3 2736.68 24848.5 2763.77L24841.1 2772.22L24734.5 2872.22V3004.72L24135.9 3004.22V2925.66H24151.1V2905.41H24135.9V2762.4L24144.4 2753.8V2741.53H24154V2724.96H24144.4V2712.68L24135.9 2705.32V2675.85H24144.4V2661.12H24135.9V2444.46H24142.1V2435.26L24150 2427.89V2418.07H24135.9V2376.95L24156.8 2365.9V2357.31H24176.5V2340.73H24156.8V2302.68H24072.2V2327.84H23792.7V2302.68H23683.4V2327.84H23163.3L22733.3 2187.9V2168.26H22706.2L22701.7 2154.15L22685.7 2140.64H22675.8ZM22675.8 2140.64V1731.87M22675.8 1731.87V1685.22L22643.2 1700C22642.4 1700.37 22641.7 1700.96 22641.2 1701.7L22628.8 1719.58C22628.2 1720.39 22627.4 1721.02 22626.5 1721.38L22610.2 1727.82C22609.6 1728.06 22609 1728.43 22608.6 1728.89L22582.7 1754.16C22582 1754.84 22581.6 1755.69 22581.4 1756.63L22574.7 1785.95C22573.6 1790.99 22579.9 1794.24 22583.3 1790.38L22603.1 1768.11C22603.8 1767.29 22604.8 1766.74 22605.9 1766.53L22633.1 1761.03C22634.1 1760.83 22635 1760.31 22635.7 1759.56L22653.3 1740.95C22653.8 1740.4 22654.5 1739.98 22655.2 1739.71L22675.8 1731.87Z" stroke="currentColor" stroke-width="8"/>
</svg>
